# 3ds Max Wavefront OBJ Exporter v0.99 - (c)2007 guruware
# File Created: 07.01.2024 12:13:21

mtllib teren.mtl

#
# object Plane001
#

v  -39.3701 0.0000 -39.3701
v  -39.3701 0.0000 39.3701
v  39.3701 0.0000 -39.3701
v  39.3701 0.0000 39.3701
# 4 vertices

vn 0.0000 1.0000 -0.0000
# 1 vertex normals

vt 0.0000 1.0000 0.0000
vt 0.0000 0.0000 0.0000
vt 1.0000 1.0000 0.0000
vt 1.0000 0.0000 0.0000
# 4 texture coords

o Plane001
g Plane001
usemtl 02___Default
s 1
f 1/1/1 2/2/1 3/3/1 
f 4/4/1 3/3/1 2/2/1 
# 2 faces

